Coordinates
version=1
nRows=17
nColumns=40
inDegrees=yes

Units are S.I. units (second, meters, Newtons, ...)
Angles are in degrees.

endheader
time	pelvis_tilt	pelvis_list	pelvis_rotation	pelvis_tx	pelvis_ty	pelvis_tz	hip_flexion_r	hip_adduction_r	hip_rotation_r	knee_angle_r	knee_angle_r_beta	ankle_angle_r	subtalar_angle_r	mtp_angle_r	hip_flexion_l	hip_adduction_l	hip_rotation_l	knee_angle_l	knee_angle_l_beta	ankle_angle_l	subtalar_angle_l	mtp_angle_l	lumbar_extension	lumbar_bending	lumbar_rotation	arm_flex_r	arm_add_r	arm_rot_r	elbow_flex_r	pro_sup_r	wrist_flex_r	wrist_dev_r	arm_flex_l	arm_add_l	arm_rot_l	elbow_flex_l	pro_sup_l	wrist_flex_l	wrist_dev_l
     52.43000000	    -11.49711497	     -7.01303353	      1.68148441	      1.07107629	      0.91569070	      0.51412156	      4.71822392	      4.70853943	    -17.74433088	      4.91670546	      4.91670546	     12.24579109	      9.17954627	     -4.27094652	     38.62552307	    -10.65793652	     -1.14063235	     17.78410058	     17.78410058	      5.73388810	     -5.42251808	     12.54397349	    -11.54655548	      5.55354749	      3.68393888	     43.24000461	    -19.26210451	      1.46869502	     95.67037041	     44.14352602	      0.00000000	      0.00000000	     -9.88081948	     -6.74255571	     -7.07603013	     33.55915627	     46.38904288	      0.00000000	      0.00000000
     52.44200000	    -11.50480656	     -7.00466102	      1.65630210	      1.07223221	      0.91449130	      0.51184557	      4.15379684	      4.51970483	    -17.56836052	      5.15933604	      5.15933604	     12.86251321	      9.10911358	     -4.10245263	     38.14354195	    -10.44324229	     -1.83871282	     17.65943844	     17.65943844	      5.11545573	     -5.54981873	     11.96347524	    -11.27104583	      5.56101747	      3.56390401	     43.18625490	    -18.59939733	      1.69482457	     97.10231958	     44.10735682	      0.00000000	      0.00000000	     -9.85046382	     -6.82801988	     -7.21145546	     33.73361411	     46.40417783	      0.00000000	      0.00000000
     52.45400000	    -11.50581701	     -7.05105347	      1.58946389	      1.07350984	      0.91322008	      0.50952055	      3.65442992	      4.35876943	    -17.36931903	      5.58223781	      5.58223781	     13.79338015	      9.06020883	     -3.07403058	     37.72537583	    -10.29822271	     -2.21549503	     17.87602376	     17.87602376	      3.66978557	     -6.17801189	      9.08638927	    -11.03269593	      5.58962971	      3.95697118	     42.53587967	    -18.61544854	      1.95645428	     99.38366782	     44.07983696	      0.00000000	      0.00000000	     -9.69441501	     -6.92194995	     -7.63137789	     34.55858755	     46.44984825	      0.00000000	      0.00000000
     52.46600000	    -11.48529736	     -7.03722439	      1.48898760	      1.07482378	      0.91211406	      0.50705805	      3.22512798	      4.08759546	    -17.14743911	      6.15111331	      6.15111331	     14.36842840	      8.93036472	     -3.05149352	     37.47329744	    -10.13254093	     -2.41615986	     18.70149072	     18.70149072	      3.25123934	     -6.80651155	      8.44348488	    -10.76163587	      5.59670438	      3.74335163	     42.30857487	    -17.86332954	      2.29651433	    100.23141309	     44.05323373	      0.00000000	      0.00000000	     -9.57002102	     -7.01407599	     -7.64517000	     34.60505104	     46.45058681	      0.00000000	      0.00000000
     52.47800000	    -11.43466625	     -6.96954676	      1.33829582	      1.07620392	      0.91119663	      0.50449786	      2.93357396	      3.69965504	    -16.84296851	      7.09387390	      7.09387390	     15.38308642	      8.68833598	     -1.93569622	     36.97781767	     -9.89132562	     -2.30080283	     19.20671550	     19.20671550	      1.70331885	     -8.11356273	      5.18318144	    -10.60144431	      5.50628978	      4.02985852	     41.49998598	    -17.79492423	      2.82414729	    102.16543097	     44.04338552	      0.00000000	      0.00000000	     -9.31163862	     -7.13745909	     -7.85790110	     35.40963370	     46.46552209	      0.00000000	      0.00000000
     52.49000000	    -11.38055543	     -6.85948084	      1.21303011	      1.07749270	      0.91046185	      0.50183015	      2.73893324	      3.22914243	    -16.59152400	      8.16793495	      8.16793495	     15.95444297	      8.35001401	     -2.02442564	     36.75050293	     -9.65826420	     -2.19121220	     20.31590191	     20.31590191	      1.54830884	     -8.87667948	      4.60367151	    -10.41140852	      5.38103786	      3.83679817	     40.91027390	    -17.04572024	      3.28761159	    102.87355303	     44.01997554	      0.00000000	      0.00000000	     -9.01687801	     -7.32549615	     -7.86590424	     35.54299777	     46.46726994	      0.00000000	      0.00000000
     52.50200000	    -11.27948536	     -6.66793003	      1.05535318	      1.07881467	      0.91007907	      0.49903028	      2.66854281	      2.61448250	    -16.24006562	      9.56903748	      9.56903748	     16.56506763	      7.82721953	     -1.97674994	     36.37492044	     -9.32672082	     -1.93937982	     21.29126417	     21.29126417	      1.42131517	     -9.91809984	      3.88524817	    -10.31429811	      5.16191327	      3.85326247	     39.92954412	    -16.72919327	      3.88616069	    103.84575743	     43.99318132	      0.00000000	      0.00000000	     -8.67533561	     -7.52272621	     -7.94813438	     35.99710916	     46.47748500	      0.00000000	      0.00000000
     52.51400000	    -11.14149945	     -6.49404934	      0.92434954	      1.08004492	      0.91002863	      0.49609357	      2.67275785	      1.98084778	    -15.94021698	     11.14849438	     11.14849438	     16.99566291	      7.27655270	     -2.15841912	     36.02331358	     -9.01393044	     -1.66656059	     22.35741284	     22.35741284	      1.64332420	    -10.75330722	      3.44814428	    -10.27725812	      4.99009007	      3.81020722	     38.94564451	    -16.34177178	      4.39247522	    104.46388114	     43.96939999	      0.00000000	      0.00000000	     -8.21121666	     -7.72750186	     -8.01054794	     36.38143309	     46.48939780	      0.00000000	      0.00000000
     52.52600000	    -10.95381435	     -6.26303167	      0.78477329	      1.08130353	      0.91040442	      0.49304228	      2.75507278	      1.24689021	    -15.59183142	     12.94712313	     12.94712313	     17.29464641	      6.64889755	     -2.47920333	     35.51632777	     -8.64261654	     -1.45087547	     23.24536485	     23.24536485	      2.05934831	    -11.53527198	      3.20089059	    -10.29374440	      4.76351207	      3.80778243	     37.70241727	    -16.06268438	      4.91069785	    104.87671885	     43.94778531	      0.00000000	      0.00000000	     -7.73640008	     -7.94293831	     -8.08954217	     36.80264841	     46.50431709	      0.00000000	      0.00000000
     52.53800000	    -10.81031804	     -6.02513955	      0.66604254	      1.08240019	      0.91110305	      0.48985630	      3.09753334	      0.45014473	    -15.22686220	     15.09117570	     15.09117570	     17.38600571	      5.84377456	     -2.99231650	     34.95821043	     -8.22883744	     -1.20709073	     23.90366584	     23.90366584	      2.58109687	    -12.25254893	      3.18190256	    -10.29980034	      4.53703796	      3.85419101	     36.19302746	    -15.91616969	      5.42986799	    105.20631166	     43.93094850	      0.00000000	      0.00000000	     -7.16716323	     -8.15074939	     -8.18838986	     37.38976182	     46.52286785	      0.00000000	      0.00000000
     52.55000000	    -10.62390733	     -5.77599739	      0.54881007	      1.08349468	      0.91219741	      0.48658283	      3.49986517	     -0.38507726	    -14.85464982	     17.38506843	     17.38506843	     17.22684260	      5.02411409	     -3.69124766	     34.26379519	     -7.81367632	     -1.10472035	     24.38258077	     24.38258077	      3.23197950	    -12.77620527	      3.24033761	    -10.35580231	      4.32254615	      3.88957925	     34.56453663	    -15.79917892	      5.87115066	    105.18447327	     43.92448247	      0.00000000	      0.00000000	     -6.58823277	     -8.35633432	     -8.27681407	     37.97993589	     46.54090532	      0.00000000	      0.00000000
     52.56200000	    -10.43946198	     -5.55029349	      0.43750060	      1.08454402	      0.91363070	      0.48325047	      4.05337922	     -1.22371498	    -14.44718318	     19.88756043	     19.88756043	     16.76538853	      4.09324296	     -4.59206723	     33.45762419	     -7.41853948	     -1.09402741	     24.63568705	     24.63568705	      3.92413269	    -13.15189981	      3.37997045	    -10.40899689	      4.16255524	      3.92394508	     32.75326944	    -15.72005616	      6.25697002	    104.85490520	     43.92757744	      0.00000000	      0.00000000	     -6.00060452	     -8.55599131	     -8.35864236	     38.64967548	     46.55897598	      0.00000000	      0.00000000
     52.57400000	    -10.31304838	     -5.38697080	      0.36663377	      1.08538826	      0.91518676	      0.47991567	      4.72585033	     -1.91023822	    -13.75951046	     22.27090719	     22.27090719	     14.95875258	      2.19316116	     -8.41434476	     32.69702809	     -7.02279769	     -0.91946528	     24.81862311	     24.81862311	      5.03802330	    -13.44170171	      4.78059592	    -10.42938049	      4.05806542	      4.06159284	     30.63578879	    -15.68755662	      6.09703586	    104.51271356	     44.00012257	      0.00000000	      0.00000000	     -5.79061616	     -8.80361947	     -8.30154286	     40.62216562	     46.55591483	      0.00000000	      0.00000000
     52.58600000	    -10.15552791	     -5.18149856	      0.25929754	      1.08628182	      0.91697412	      0.47654202	      5.65649308	     -2.79783342	    -13.38546231	     25.28156400	     25.28156400	     13.91557054	      1.20221056	     -9.51638371	     31.69907028	     -6.68478917	     -1.21522989	     24.62226442	     24.62226442	      5.66868019	    -13.28318309	      4.68731236	    -10.43417428	      3.96374312	      4.04063859	     28.70348609	    -15.65983966	      6.46030153	    103.36628234	     44.02955086	      0.00000000	      0.00000000	     -5.17337621	     -9.00962029	     -8.29132107	     41.17834216	     46.56447849	      0.00000000	      0.00000000
     52.59800000	    -10.01654633	     -5.00956257	      0.15671696	      1.08705391	      0.91882273	      0.47322513	      6.76012628	     -3.60412129	    -12.82388379	     28.44279082	     28.44279082	     12.41179867	     -0.28506557	    -10.85452708	     30.66260821	     -6.36016489	     -1.49251568	     24.29282187	     24.29282187	      6.22717697	    -13.20248122	      4.67580464	    -10.41407198	      3.91664361	      4.05743980	     26.62005131	    -15.66672398	      6.60293888	    101.87603961	     44.07566878	      0.00000000	      0.00000000	     -4.62593903	     -9.22291519	     -8.27188629	     42.11904503	     46.57457811	      0.00000000	      0.00000000
     52.61000000	     -9.83885724	     -4.97046520	      0.10033538	      1.08777450	      0.92067087	      0.47008923	      7.70187638	     -4.08612296	    -12.01339309	     31.00538519	     31.00538519	      8.44970461	     -3.63194108	    -17.76157321	     29.62716197	     -6.16597895	     -1.70853427	     24.00583521	     24.00583521	      6.87005757	    -12.98507295	      4.87493024	    -10.42252427	      3.97623091	      3.73289819	     24.80631342	    -15.21767947	      6.47415835	     99.33586352	     44.24222187	      0.00000000	      0.00000000	     -5.13699195	     -9.82417294	     -7.36659258	     45.29204507	     46.50932069	      0.00000000	      0.00000000
     52.62200000	     -9.71440088	     -4.90064136	      0.01434551	      1.08837163	      0.92245567	      0.46699973	      9.10842003	     -4.66534207	    -11.25529570	     34.43917790	     34.43917790	      6.26410692	     -5.92792219	    -18.57835577	     28.55808795	     -5.94990103	     -1.99371021	     23.53999552	     23.53999552	      7.31923087	    -12.74218629	      4.71672909	    -10.37637815	      4.03747541	      3.73197202	     22.68692198	    -15.12019637	      6.07836725	     97.00663223	     44.34326810	      0.00000000	      0.00000000	     -4.68491206	    -10.09207447	     -7.24644641	     46.71622622	     46.52124700	      0.00000000	      0.00000000
